<svg width="102" height="174" viewBox="0 0 102 174" fill="none" xmlns="http://www.w3.org/2000/svg">
<g clip-path="url(#clip0_4_58)">
<path d="M51.1019 132.988C57.3659 132.988 62.4439 127.91 62.4439 121.646C62.4439 115.382 57.3659 110.304 51.1019 110.304C44.8378 110.304 39.7598 115.382 39.7598 121.646C39.7598 127.91 44.8378 132.988 51.1019 132.988Z" fill="#226ED8"/>
<path d="M67.8838 33.5045V74.8248C77.7078 78.3885 86.1951 84.893 92.1902 93.4528C98.1854 102.013 101.397 112.212 101.388 122.662V33.5045H67.8838Z" fill="#226ED8"/>
<path d="M33.5045 74.8248V0H1.27553e-05V122.656C-0.00738702 112.206 3.20503 102.008 9.20006 93.45C15.1951 84.8915 23.6816 78.3881 33.5045 74.8248Z" fill="#226ED8"/>
<path d="M67.8838 74.8248V102.281C71.7119 105.689 74.4214 110.174 75.6574 115.147C76.8933 120.121 76.5981 125.352 74.8102 130.156C73.0224 134.959 69.8255 139.11 65.6382 142.065C61.4509 145.02 56.4687 146.642 51.3441 146.717C46.2195 146.793 41.1917 145.318 36.9193 142.488C32.647 139.657 29.3293 135.601 27.401 130.853C25.4727 126.104 25.0236 120.884 26.1128 115.876C27.2019 110.868 29.7783 106.306 33.5045 102.787V74.8248C23.6816 78.3881 15.1951 84.8915 9.20006 93.45C3.20503 102.008 -0.00738702 112.206 1.27553e-05 122.656C1.27553e-05 150.729 22.6955 173.486 50.6942 173.486C78.6928 173.486 101.388 150.729 101.388 122.656C101.396 112.206 98.1833 102.008 92.1883 93.45C86.1932 84.8915 77.7068 78.3881 67.8838 74.8248Z" fill="#226ED8"/>
</g>
<defs>
<clipPath id="clip0_4_58">
<rect width="101.388" height="173.486" fill="white"/>
</clipPath>
</defs>
</svg>
