<svg width="150" height="150" viewBox="0 0 150 150" fill="none" xmlns="http://www.w3.org/2000/svg">
<g id="bt-expandir-portfolio">
<path id="Vector" d="M75 82.6562L99.375 58.2812C100.521 57.1354 101.979 56.5625 103.75 56.5625C105.521 56.5625 106.979 57.1354 108.125 58.2812C109.271 59.4271 109.844 60.8854 109.844 62.6562C109.844 64.4271 109.271 65.8854 108.125 67.0312L79.375 95.7812C78.75 96.4062 78.0729 96.849 77.3438 97.1094C76.6146 97.3698 75.8333 97.5 75 97.5C74.1667 97.5 73.3854 97.3698 72.6562 97.1094C71.9271 96.849 71.25 96.4062 70.625 95.7812L41.875 67.0312C40.7292 65.8854 40.1562 64.4271 40.1562 62.6562C40.1562 60.8854 40.7292 59.4271 41.875 58.2812C43.0208 57.1354 44.4792 56.5625 46.25 56.5625C48.0208 56.5625 49.4792 57.1354 50.625 58.2812L75 82.6562Z" fill="#F2F3F4"/>
</g>
</svg>
