<svg width="90" height="79" viewBox="0 0 90 79" fill="none" xmlns="http://www.w3.org/2000/svg">
<path id="Vector" d="M45.2119 34.6459L75.3594 59.9207L54.006 75.9893C48.6733 80.0036 41.338 80.0036 36.0052 75.9893L13.0055 58.6829C11.0592 57.2194 8.68911 56.4255 6.25526 56.4255H3.75391C1.68007 56.4255 0 54.74 0 52.6633V11.0415C0 9.13024 1.42131 7.53881 3.31514 7.32436C8.4041 6.75626 12.9868 4.70583 17.6745 1.96691C24.4173 -1.51318 33.2639 -0.271633 38.7354 4.87137L41.0492 7.10239L26.0223 21.8166C21.9984 25.8497 21.3571 32.2267 24.5298 36.6323C26.4799 39.3524 30.0087 41.369 33.6952 41.369C36.669 41.369 39.5229 40.1952 41.5855 38.1222L45.2119 34.6421V34.6459ZM74.8306 1.96691C68.4929 -1.2122 60.5875 -0.3845 54.9248 4.02862L31.2876 27.174C29.8962 28.5736 29.5812 30.8121 30.6088 32.2418C31.2838 33.1823 32.2626 33.7467 33.3801 33.8407C34.4864 33.9348 35.559 33.5322 36.3353 32.7497L49.9033 19.8489C53.4622 16.4591 58.6187 21.8692 55.0898 25.2854L50.6609 29.4126L82.8859 56.4293H86.2498C88.3199 56.4293 90 54.7438 90 52.667V10.9135C90 9.07004 88.6574 7.54633 86.8461 7.21902C80.4934 6.06777 74.8269 1.97067 74.8269 1.97067L74.8306 1.96691Z" fill="#5C9DF7"/>
</svg>
