<svg width="100" height="95" viewBox="0 0 100 95" fill="none" xmlns="http://www.w3.org/2000/svg">
<path id="Vector" d="M93.4604 43.6856C92.0507 40.3268 90.0238 37.1903 87.488 34.4469V19.6977C87.488 17.2441 86.3285 14.9652 84.3016 13.4406C82.308 11.9439 79.7597 11.4039 77.2907 11.9558C69.6792 13.6828 63.9696 17.788 60.9125 23.652H38.5452C27.7807 23.652 18.1172 28.2495 11.7737 35.4395C6.76885 34.7447 7.3736 27.6142 12.4118 27.6222C17.8628 27.6023 17.867 19.7016 12.4118 19.6818C-0.871818 19.6421 -4.80893 37.1744 7.12335 42.3476C-0.212852 56.7197 6.16827 75.2288 20.7531 82.8912V83.2049C20.7614 96.509 40.5221 99.5541 45.0639 87.1751H54.8358C59.3777 99.5621 79.1383 96.5011 79.1467 83.2049V82.8396C85.6529 79.2545 90.7036 73.7082 93.4604 67.1415C96.8845 66.4467 100 63.7748 100 59.3837V51.4433C100 47.0523 96.8803 44.3804 93.4604 43.6856ZM74.976 51.4433C69.5207 51.4195 69.5207 43.5268 74.976 43.5029C80.4312 43.5268 80.4312 51.4195 74.976 51.4433ZM25.1448 17.7443C22.8009 -4.45304 57.4258 -6.60091 58.2933 15.7116H38.5493C33.874 15.7116 29.3739 16.4461 25.1448 17.7443Z" fill="#5C9DF7"/>
</svg>
