<svg width="100" height="86" viewBox="0 0 100 86" fill="none" xmlns="http://www.w3.org/2000/svg">
<path id="Vector" d="M100 29.2956V74.2807C100 75.3164 99.561 76.3096 98.7796 77.0419C97.9982 77.7742 96.9384 78.1857 95.8333 78.1857C94.7282 78.1857 93.6684 77.7742 92.887 77.0419C92.1056 76.3096 91.6666 75.3164 91.6666 74.2807V42.0726L60.8332 55.8805C57.5821 57.679 53.8707 58.6157 50.0956 58.5906C46.1367 58.5963 42.2496 57.5993 38.8456 55.7048L8.09549 41.9867C5.67832 40.7685 3.65302 38.9664 2.22973 36.7672C0.806434 34.568 0.0370138 32.0519 0.00130236 29.48C-0.0344091 26.9082 0.664889 24.3742 2.02664 22.141C3.38838 19.9079 5.36297 18.0569 7.74549 16.7802C7.85799 16.7177 7.97883 16.6591 8.09549 16.6045L39.1664 2.71064C42.5209 0.905225 46.328 -0.0301437 50.1961 0.000740765C54.0642 0.0316252 57.8537 1.02765 61.1749 2.88636L91.9041 16.6045C94.3289 17.8618 96.3552 19.6983 97.7772 21.9274C99.1992 24.1565 99.9661 26.6987 100 29.2956ZM50.0915 66.3927C44.7605 66.4038 39.5211 65.0944 34.9039 62.5971L16.6664 54.4396V64.983C16.6688 69.1516 18.0929 73.2104 20.7307 76.5669C23.3684 79.9235 27.0818 82.402 31.3289 83.6409C37.397 85.2737 43.687 86.067 49.9998 85.9956C56.3134 86.0619 62.6035 85.2634 68.6707 83.6253C72.9178 82.3864 76.6312 79.9078 79.269 76.5513C81.9067 73.1948 83.3308 69.136 83.3333 64.9674V54.4591L64.754 62.7767C60.2942 65.178 55.2349 66.4284 50.0915 66.4005V66.3927Z" fill="#5C9DF7"/>
</svg>
